{"accessors":[{"bufferView":0,"componentType":5125,"count":6192,"type":"SCALAR"},{"bufferView":1,"componentType":5126,"count":1132,"max":[0.57393687963485718,0,1],"min":[-0.58183372020721436,-0.49738737940788269,-0.46603107452392578],"type":"VEC3"},{"bufferView":2,"componentType":5126,"count":1132,"type":"VEC3"},{"bufferView":3,"componentType":5126,"count":1132,"type":"VEC2"},{"bufferView":4,"componentType":5125,"count":29688,"type":"SCALAR"},{"bufferView":5,"componentType":5126,"count":5412,"max":[0.76646929979324341,0.91250956058502197,0.98749399185180664],"min":[-0.76646929979324341,-0.49868959188461304,-1.0000001192092896],"type":"VEC3"},{"bufferView":6,"componentType":5126,"count":5412,"type":"VEC3"},{"bufferView":7,"componentType":5126,"count":5412,"type":"VEC2"},{"bufferView":8,"componentType":5125,"count":8718,"type":"SCALAR"},{"bufferView":9,"componentType":5126,"count":1744,"max":[0.70964020490646362,0,0.9581063985824585],"min":[-0.71250355243682861,-0.93173915147781372,-0.52587085962295532],"type":"VEC3"},{"bufferView":10,"componentType":5126,"count":1744,"type":"VEC3"},{"bufferView":11,"componentType":5126,"count":1744,"type":"VEC2"},{"bufferView":12,"componentType":5125,"count":6102,"type":"SCALAR"},{"bufferView":13,"componentType":5126,"count":1167,"max":[0.5654979944229126,0.93173903226852417,0],"min":[-0.57987743616104126,-0.18363142013549805,-0.73425972461700439],"type":"VEC3"},{"bufferView":14,"componentType":5126,"count":1167,"type":"VEC3"},{"bufferView":15,"componentType":5126,"count":1167,"type":"VEC2"}],"asset":{"generator":"Substance Painter 2017.3.3","version":"2.0"},"bufferViews":[{"buffer":0,"byteLength":24768,"byteOffset":0,"target":34963},{"buffer":0,"byteLength":13584,"byteOffset":24768,"target":34962},{"buffer":0,"byteLength":13584,"byteOffset":38352,"target":34962},{"buffer":0,"byteLength":9056,"byteOffset":51936,"target":34962},{"buffer":0,"byteLength":118752,"byteOffset":60992,"target":34963},{"buffer":0,"byteLength":64944,"byteOffset":179744,"target":34962},{"buffer":0,"byteLength":64944,"byteOffset":244688,"target":34962},{"buffer":0,"byteLength":43296,"byteOffset":309632,"target":34962},{"buffer":0,"byteLength":34872,"byteOffset":352928,"target":34963},{"buffer":0,"byteLength":20928,"byteOffset":387800,"target":34962},{"buffer":0,"byteLength":20928,"byteOffset":408728,"target":34962},{"buffer":0,"byteLength":13952,"byteOffset":429656,"target":34962},{"buffer":0,"byteLength":24408,"byteOffset":443608,"target":34963},{"buffer":0,"byteLength":14004,"byteOffset":468016,"target":34962},{"buffer":0,"byteLength":14004,"byteOffset":482020,"target":34962},{"buffer":0,"byteLength":9336,"byteOffset":496024,"target":34962}],"buffers":[{"byteLength":505360,"uri":"armchair.bin"}],"images":[{"uri":"armchair_baseColor.png"},{"uri":"armchair_occlusionRoughnessMetallic.png"},{"uri":"armchair_normal.png"}],"materials":[{"alphaMode":"BLEND","name":"armchair","normalTexture":{"index":2},"occlusionTexture":{"index":1},"pbrMetallicRoughness":{"baseColorTexture":{"index":0},"metallicRoughnessTexture":{"index":1}}}],"meshes":[{"name":"seat","primitives":[{"attributes":{"NORMAL":2,"POSITION":1,"TEXCOORD_0":3},"indices":0,"material":0,"mode":4}]},{"name":"sides","primitives":[{"attributes":{"NORMAL":6,"POSITION":5,"TEXCOORD_0":7},"indices":4,"material":0,"mode":4}]},{"name":"legs","primitives":[{"attributes":{"NORMAL":10,"POSITION":9,"TEXCOORD_0":11},"indices":8,"material":0,"mode":4}]},{"name":"pillow","primitives":[{"attributes":{"NORMAL":14,"POSITION":13,"TEXCOORD_0":15},"indices":12,"material":0,"mode":4}]}],"nodes":[{"children":[1,3,5,7],"name":"root","scale":[99.329177856445312,99.329177856445312,99.329177856445312],"translation":[0,92.756256103515625,0]},{"children":[2],"name":"seat"},{"mesh":0,"name":"seat"},{"children":[4],"name":"sides"},{"mesh":1,"name":"sides"},{"children":[6],"name":"legs"},{"mesh":2,"name":"legs"},{"children":[8],"name":"pillow"},{"mesh":3,"name":"pillow"}],"samplers":[{"magFilter":9729,"minFilter":9985,"wrapS":10497,"wrapT":10497}],"scene":0,"scenes":[{"name":"Scene","nodes":[0]}],"textures":[{"sampler":0,"source":0},{"sampler":0,"source":1},{"sampler":0,"source":2}]}
