{"accessors":[{"bufferView":0,"componentType":5125,"count":6336,"type":"SCALAR"},{"bufferView":1,"componentType":5126,"count":1352,"max":[0.058271437883377075,0.46509861946105957,0.52913564443588257],"min":[-1,-0.56281590461730957,-0.52913570404052734],"type":"VEC3"},{"bufferView":2,"componentType":5126,"count":1352,"type":"VEC3"},{"bufferView":3,"componentType":5126,"count":1352,"type":"VEC2"},{"bufferView":4,"componentType":5125,"count":324,"type":"SCALAR"},{"bufferView":5,"componentType":5126,"count":120,"max":[0,0.57524716854095459,0.46747437119483948],"min":[-0.9383385181427002,0,-0.46747425198554993],"type":"VEC3"},{"bufferView":6,"componentType":5126,"count":120,"type":"VEC3"},{"bufferView":7,"componentType":5126,"count":120,"type":"VEC2"}],"asset":{"generator":"Substance Painter 2017.3.3","version":"2.0"},"bufferViews":[{"buffer":0,"byteLength":25344,"byteOffset":0,"target":34963},{"buffer":0,"byteLength":16224,"byteOffset":25344,"target":34962},{"buffer":0,"byteLength":16224,"byteOffset":41568,"target":34962},{"buffer":0,"byteLength":10816,"byteOffset":57792,"target":34962},{"buffer":0,"byteLength":1296,"byteOffset":68608,"target":34963},{"buffer":0,"byteLength":1440,"byteOffset":69904,"target":34962},{"buffer":0,"byteLength":1440,"byteOffset":71344,"target":34962},{"buffer":0,"byteLength":960,"byteOffset":72784,"target":34962}],"buffers":[{"byteLength":73744,"uri":"wooden_table.bin"}],"images":[{"uri":"wooden_table_baseColor.png"},{"uri":"wooden_table_occlusionRoughnessMetallic.png"},{"uri":"wooden_table_normal.png"}],"materials":[{"alphaMode":"BLEND","name":"wooden_table","normalTexture":{"index":2},"occlusionTexture":{"index":1},"pbrMetallicRoughness":{"baseColorTexture":{"index":0},"metallicRoughnessTexture":{"index":1}}}],"meshes":[{"name":"Cube","primitives":[{"attributes":{"NORMAL":2,"POSITION":1,"TEXCOORD_0":3},"indices":0,"material":0,"mode":4}]},{"name":"iron_chair02_26","primitives":[{"attributes":{"NORMAL":6,"POSITION":5,"TEXCOORD_0":7},"indices":4,"material":0,"mode":4}]}],"nodes":[{"children":[1,3],"name":"root","scale":[36.039447784423828,36.039447784423828,36.039447784423828],"translation":[16.969690322875977,20.732004165649414,1.9073486328125e-06]},{"children":[2],"name":"Cube"},{"mesh":0,"name":"Cube"},{"children":[4],"name":"iron_chair02_26"},{"mesh":1,"name":"iron_chair02_26"}],"samplers":[{"magFilter":9729,"minFilter":9985,"wrapS":10497,"wrapT":10497}],"scene":0,"scenes":[{"name":"Scene","nodes":[0]}],"textures":[{"sampler":0,"source":0},{"sampler":0,"source":1},{"sampler":0,"source":2}]}
