{"accessors":[{"bufferView":0,"componentType":5125,"count":26010,"type":"SCALAR"},{"bufferView":1,"componentType":5126,"count":4754,"max":[0.012093305587768555,0,0.44957417249679565],"min":[-0.91203153133392334,-0.24246589839458466,-0.27108192443847656],"type":"VEC3"},{"bufferView":2,"componentType":5126,"count":4754,"type":"VEC3"},{"bufferView":3,"componentType":5126,"count":4754,"type":"VEC2"},{"bufferView":4,"componentType":5125,"count":67104,"type":"SCALAR"},{"bufferView":5,"componentType":5126,"count":11843,"max":[0.97147458791732788,0.4382728636264801,0.12101656198501587],"min":[-0.95600080490112305,-0.10135400295257568,-0.40980654954910278],"type":"VEC3"},{"bufferView":6,"componentType":5126,"count":11843,"type":"VEC3"},{"bufferView":7,"componentType":5126,"count":11843,"type":"VEC2"},{"bufferView":8,"componentType":5125,"count":1266,"type":"SCALAR"},{"bufferView":9,"componentType":5126,"count":324,"max":[1,0.170818030834198,0.42315307259559631],"min":[-1,-0.32918193936347961,-0.44957417249679565],"type":"VEC3"},{"bufferView":10,"componentType":5126,"count":324,"type":"VEC3"},{"bufferView":11,"componentType":5126,"count":324,"type":"VEC2"},{"bufferView":12,"componentType":5125,"count":864,"type":"SCALAR"},{"bufferView":13,"componentType":5126,"count":304,"max":[0.8597760796546936,0,0.35543423891067505],"min":[-0.87082648277282715,-0.4382728636264801,-0.41383415460586548],"type":"VEC3"},{"bufferView":14,"componentType":5126,"count":304,"type":"VEC3"},{"bufferView":15,"componentType":5126,"count":304,"type":"VEC2"},{"bufferView":16,"componentType":5125,"count":26010,"type":"SCALAR"},{"bufferView":17,"componentType":5126,"count":4754,"max":[0.90862882137298584,0.0012088119983673096,0.44493243098258972],"min":[0,-0.24183343350887299,-0.26994317770004272],"type":"VEC3"},{"bufferView":18,"componentType":5126,"count":4754,"type":"VEC3"},{"bufferView":19,"componentType":5126,"count":4754,"type":"VEC2"}],"asset":{"generator":"Substance Painter 2017.3.3","version":"2.0"},"bufferViews":[{"buffer":0,"byteLength":104040,"byteOffset":0,"target":34963},{"buffer":0,"byteLength":57048,"byteOffset":104040,"target":34962},{"buffer":0,"byteLength":57048,"byteOffset":161088,"target":34962},{"buffer":0,"byteLength":38032,"byteOffset":218136,"target":34962},{"buffer":0,"byteLength":268416,"byteOffset":256168,"target":34963},{"buffer":0,"byteLength":142116,"byteOffset":524584,"target":34962},{"buffer":0,"byteLength":142116,"byteOffset":666700,"target":34962},{"buffer":0,"byteLength":94744,"byteOffset":808816,"target":34962},{"buffer":0,"byteLength":5064,"byteOffset":903560,"target":34963},{"buffer":0,"byteLength":3888,"byteOffset":908624,"target":34962},{"buffer":0,"byteLength":3888,"byteOffset":912512,"target":34962},{"buffer":0,"byteLength":2592,"byteOffset":916400,"target":34962},{"buffer":0,"byteLength":3456,"byteOffset":918992,"target":34963},{"buffer":0,"byteLength":3648,"byteOffset":922448,"target":34962},{"buffer":0,"byteLength":3648,"byteOffset":926096,"target":34962},{"buffer":0,"byteLength":2432,"byteOffset":929744,"target":34962},{"buffer":0,"byteLength":104040,"byteOffset":932176,"target":34963},{"buffer":0,"byteLength":57048,"byteOffset":1036216,"target":34962},{"buffer":0,"byteLength":57048,"byteOffset":1093264,"target":34962},{"buffer":0,"byteLength":38032,"byteOffset":1150312,"target":34962}],"buffers":[{"byteLength":1188344,"uri":"sofa.bin"}],"images":[{"uri":"sofa_baseColor.png"},{"uri":"sofa_occlusionRoughnessMetallic.png"},{"uri":"sofa_normal.png"}],"materials":[{"alphaMode":"BLEND","name":"sofa","normalTexture":{"index":2},"occlusionTexture":{"index":1},"pbrMetallicRoughness":{"baseColorTexture":{"index":0},"metallicRoughnessTexture":{"index":1}}}],"meshes":[{"name":"Box008.001","primitives":[{"attributes":{"NORMAL":2,"POSITION":1,"TEXCOORD_0":3},"indices":0,"material":0,"mode":4}]},{"name":"lowpoly.002","primitives":[{"attributes":{"NORMAL":6,"POSITION":5,"TEXCOORD_0":7},"indices":4,"material":0,"mode":4}]},{"name":"Box001","primitives":[{"attributes":{"NORMAL":10,"POSITION":9,"TEXCOORD_0":11},"indices":8,"material":0,"mode":4}]},{"name":"Cylinder002","primitives":[{"attributes":{"NORMAL":14,"POSITION":13,"TEXCOORD_0":15},"indices":12,"material":0,"mode":4}]},{"name":"Box008","primitives":[{"attributes":{"NORMAL":18,"POSITION":17,"TEXCOORD_0":19},"indices":16,"material":0,"mode":4}]}],"nodes":[{"children":[1,3,5,7,9],"name":"root","scale":[109.99859619140625,109.99859619140625,109.99859619140625],"translation":[-17.507247924804688,48.209400177001953,-28.123249053955078]},{"children":[2],"name":"Box008.001"},{"mesh":0,"name":"Box008.001"},{"children":[4],"name":"lowpoly.002"},{"mesh":1,"name":"lowpoly.002"},{"children":[6],"name":"Box001"},{"mesh":2,"name":"Box001"},{"children":[8],"name":"Cylinder002"},{"mesh":3,"name":"Cylinder002"},{"children":[10],"name":"Box008"},{"mesh":4,"name":"Box008"}],"samplers":[{"magFilter":9729,"minFilter":9985,"wrapS":10497,"wrapT":10497}],"scene":0,"scenes":[{"name":"Scene","nodes":[0]}],"textures":[{"sampler":0,"source":0},{"sampler":0,"source":1},{"sampler":0,"source":2}]}
